# xmcd
#
# Track frame offsets:
#	150
#	10831
#	22703
#	34340
#	46675
#	59145
#	72581
#	85564
#	96426
#	108067
#	121251
#	130095
#	140477
#	154308
#	166982
#	179030
#	190391
#	202283
#	214389
#	224606
#	238601
#
# Disc length: 3336 seconds
#
# Revision: 1476064674
# Processed by: cddbd v1.5.2PL0 Copyright (c) Steve Scherf et al.
# Submitted via: EZCDAudioConverter 9.1.1.1
#
DISCID=3b0d0615
DTITLE=Stanley Brothers - Selected Sides 1947-1953 CD2 (JSP 2003)
DYEAR=1900
DGENRE=Bluegrass
TTITLE0=The Old Home
TTITLE1=The Drunkard's Hell
TTITLE2=The Fields Have Turned Brown
TTITLE3=Hey! Hey! Hey!
TTITLE4=The Lonesome River
TTITLE5=I'm A Man Of Constant Sorrow
TTITLE6=Pretty Polly
TTITLE7=Sweetest Love
TTITLE8=The Wandering Boy
TTITLE9=Little Glass Of Wine
TTITLE10=Little Birdie
TTITLE11=Are You Just Waiting For Me
TTITLE12=Little Girl And The Dreadful Snake
TTITLE13=(Say) Won't You Be Mine
TTITLE14=This Weary Heart You Stole Away (Wake Up Sweetheart)
TTITLE15=I'm Lonesome Without You
TTITLE16=Our Last Goodbye
TTITLE17=Poison Lies
TTITLE18=Dickson County Breakdown
TTITLE19=I Long To See The Old Folks
TTITLE20=A Voice From On High
EXTD=
EXTT0=
EXTT1=
EXTT2=
EXTT3=
EXTT4=
EXTT5=
EXTT6=
EXTT7=
EXTT8=
EXTT9=
EXTT10=
EXTT11=
EXTT12=
EXTT13=
EXTT14=
EXTT15=
EXTT16=
EXTT17=
EXTT18=
EXTT19=
EXTT20=
PLAYORDER=
